<svg width="42" height="42">
    <path
        fill="#E26409"
        fillRule="evenodd"
        clipRule="evenodd"
        d="M10 0A10 10 0 0 0 0 10v22a10 10 0 0 0 10 10h22a10 10 0 0 0 10-10V10A10 10 0 0 0 32 0H10Zm5.3 32.03c1.45.65 3.2.97 5.28.97 1.95 0 3.62-.3 5.02-.9a7.36 7.36 0 0 0 3.24-2.52A6.48 6.48 0 0 0 30 25.75c0-1.41-.37-2.6-1.1-3.58-.71-1-1.7-1.78-2.98-2.34a13.45 13.45 0 0 0-4.43-1.09l-1.76-.15c-1.07-.09-1.83-.37-2.3-.84a2.4 2.4 0 0 1-.65-1.68c0-.75.28-1.4.85-1.93.56-.56 1.42-.84 2.57-.84 1.2 0 2.1.3 2.7.93.61.62.91 1.35.91 2.18h5.03a7.1 7.1 0 0 0-1.04-3.86c-.69-1.12-1.68-2-2.98-2.62A10.45 10.45 0 0 0 20.2 9c-1.72 0-3.2.3-4.46.87a6.8 6.8 0 0 0-2.95 2.43 6.74 6.74 0 0 0-1.04 3.77c0 2.03.68 3.66 2.04 4.88 1.37 1.2 3.19 1.9 5.47 2.09l1.73.15c1.4.13 2.42.4 3.04.84.63.42.95 1 .95 1.72 0 .87-.38 1.58-1.14 2.14-.75.54-1.84.81-3.26.81-1.61 0-2.79-.32-3.52-.96a3.07 3.07 0 0 1-1.07-2.3H11c0 1.47.36 2.78 1.07 3.92a7.27 7.27 0 0 0 3.23 2.67Z"
    />
</svg>