<svg width="24" height="24"><path fillRule="evenodd" clipRule="evenodd" d="M12 17.62a5.63 5.63 0 0 1 0-11.24 5.63 5.63 0 0 1 0 11.24Z"/><path fillRule="evenodd" clipRule="evenodd" d="M12 7c2.75 0 5 2.26 5 5s-2.26 5-5 5-5-2.26-5-5 2.25-5 5-5Zm0-1.23a6.24 6.24 0 1 0 .01 12.48A6.24 6.24 0 0 0 12 5.77Z"/><path fillRule="evenodd" clipRule="evenodd" d="M12 0c.34 0 .62.28.62.62v3.06a.62.62 0 0 1-1.24 0V.62c0-.34.28-.62.62-.62Zm7.52 4.48c.24.25.24.64 0 .88L18.3 6.57a.62.62 0 1 1-.87-.87l1.21-1.22a.62.62 0 0 1 .88 0Zm-15.03 0a.62.62 0 0 1 .87 0L6.57 5.7a.62.62 0 0 1-.87.87l-1.21-1.2a.62.62 0 0 1 0-.88ZM0 12c0-.34.28-.62.62-.62h3.06a.62.62 0 0 1 0 1.24H.62A.62.62 0 0 1 0 12Zm19.7 0c0-.34.27-.62.62-.62h3.06a.62.62 0 1 1 0 1.24h-3.06a.62.62 0 0 1-.62-.62ZM6.57 17.43c.25.24.25.63 0 .87l-1.2 1.21a.62.62 0 1 1-.88-.87l1.21-1.21a.62.62 0 0 1 .87 0Zm10.86 0a.62.62 0 0 1 .87 0l1.64 1.63a.62.62 0 0 1-.88.88l-1.63-1.64a.62.62 0 0 1 0-.87ZM12 19.7c.34 0 .62.27.62.62v3.06a.62.62 0 1 1-1.24 0v-3.06c0-.35.28-.62.62-.62Z" /></svg>