<?xml version="1.0" encoding="utf-8"?>
<svg version="1.1" id="레이어_1" xmlns="http://www.w3.org/2000/svg" xmlns:xlink="http://www.w3.org/1999/xlink" x="0px"
	 y="0px" viewBox="0 0 543.2 543.2" style="enable-background:new 0 0 543.2 543.2;" xml:space="preserve">
<style type="text/css">
	.st0{fill:none;stroke:#000000;stroke-width:28;stroke-linecap:round;stroke-linejoin:round;stroke-miterlimit:10;}
</style>
<g>
	<path d="M271.6,398.7c-70,0-127.1-57.1-127.1-127.1s57.1-127.1,127.1-127.1s127.1,57.1,127.1,127.1S341.6,398.7,271.6,398.7z"/>
	<path d="M271.6,158.5c62.2,0,113.1,51,113.1,113.1s-51,113.1-113.1,113.1s-113.1-51-113.1-113.1S209.4,158.5,271.6,158.5
		 M271.6,130.5c-77.8,0-141.1,63.3-141.1,141.1s63.3,141.1,141.1,141.1s141.1-63.3,141.1-141.1S349.4,130.5,271.6,130.5z"/>
	<path class="st0" d="M271.6,83.4V14 M271.6,529.2v-69.4 M83.4,271.6H14 M529.2,271.6h-69.4 M138.9,138.9l-27.4-27.4 M441.3,441.3
		l-37-37 M138.9,404.3l-27.4,27.4 M431.8,111.4l-27.4,27.4"/>
</g>
</svg>
