<?xml version="1.0" encoding="utf-8"?>
<!-- Generator: Adobe Illustrator 24.2.1, SVG Export Plug-In . SVG Version: 6.00 Build 0)  -->
<svg version="1.1" id="레이어_1" xmlns="http://www.w3.org/2000/svg" xmlns:xlink="http://www.w3.org/1999/xlink" x="0px"
	 y="0px" viewBox="0 0 534.4 535.3" style="enable-background:new 0 0 534.4 535.3;" xml:space="preserve">
<style type="text/css">
	.st0{fill:#FFFFFF;}
</style>
<path class="st0" d="M468.4,314.1c-12.6,2.6-25.4,3.9-38.3,3.8c-51-0.1-100-20.4-136.1-56.4c-36.1-36.1-56.4-85-56.4-136.1
	c-0.1-20.5,3.2-40.8,9.8-60.2c2-5.9,0.7-12.5-3.4-17.1c-4.1-4.7-10.4-6.8-16.6-5.6C174.9,53.2,127.8,82,94.5,123.9
	c-33.4,41.9-50.9,94.2-49.4,147.8c1.4,53.5,21.7,104.8,57.3,144.9s84.1,66.3,137.1,74c53,7.8,107-3.4,152.6-31.6
	c45.6-28.1,79.7-71.5,96.5-122.3c1.9-5.9,0.6-12.5-3.6-17.1C480.8,314.9,474.5,312.8,468.4,314.1L468.4,314.1z"/>
</svg>
