<svg width="20" height="20" viewBox="0 0 32 32"><path fill="#1A1414" fillRule="evenodd" clipRule="evenodd" d="M16.29 0a16.29 16.29 0 0 0-5.15 31.75c.82.15 1.11-.36 1.11-.79v-2.77C7.7 29.18 6.74 26 6.74 26a4.36 4.36 0 0 0-1.81-2.39c-1.47-1 .12-1 .12-1a3.43 3.43 0 0 1 2.49 1.68 3.48 3.48 0 0 0 4.74 1.36c.06-.82.42-1.6 1-2.18-3.62-.41-7.42-1.81-7.42-8a6.3 6.3 0 0 1 1.67-4.37 5.94 5.94 0 0 1 .16-4.31s1.37-.44 4.48 1.67c2.67-.73 5.49-.73 8.16 0 3.11-2.11 4.47-1.67 4.47-1.67.6 1.35.67 2.88.2 4.28a6.3 6.3 0 0 1 1.67 4.37c0 6.26-3.81 7.63-7.44 8a3.85 3.85 0 0 1 1.11 3v4.47c0 .53.29.94 1.12.78A16.29 16.29 0 0 0 16.29 0Z" /></svg>